<?xml version="1.0" encoding="UTF-8" standalone="no"?>
<!-- Created with Inkscape (http://www.inkscape.org/) -->

<svg
   xmlns:dc="http://purl.org/dc/elements/1.1/"
   xmlns:cc="http://creativecommons.org/ns#"
   xmlns:rdf="http://www.w3.org/1999/02/22-rdf-syntax-ns#"
   xmlns:svg="http://www.w3.org/2000/svg"
   xmlns="http://www.w3.org/2000/svg"
   xmlns:xlink="http://www.w3.org/1999/xlink"
   xmlns:sodipodi="http://sodipodi.sourceforge.net/DTD/sodipodi-0.dtd"
   xmlns:inkscape="http://www.inkscape.org/namespaces/inkscape"
   width="60mm"
   height="60mm"
   viewBox="0 0 60 60"
   version="1.1"
   id="svg8"
   inkscape:version="0.92.4 (unknown)"
   sodipodi:docname="logo.svg">
  <defs
     id="defs2">
    <path
       transform="matrix(10,0,0,-10,260,260)"
       id="p"
       d="M 2.8117,-1.046 A 3,3 0 0 1 0.5,2.958 V 4.5119 A 10.5,10.5 0 0 1 2,25.3078 v 0.5583 A 15,15 0 0 0 14.7975,8.5433 15,15 0 0 0 23.4007,-11.201 l -0.4835,0.2792 A 10.5,10.5 0 0 1 4.1574,-1.8229 Z m 3.4148,8.871 a 10,10 0 0 1 -12.453,0 9.5,9.5 0 0 0 -2.1756,2.7417 13.5,13.5 0 0 0 16.8042,0 A 10,10 0 0 0 6.2265,7.825 Z"
       inkscape:connector-curvature="0" />
  </defs>
  <sodipodi:namedview
     id="base"
     pagecolor="#ffffff"
     bordercolor="#666666"
     borderopacity="1.0"
     inkscape:pageopacity="0.0"
     inkscape:pageshadow="2"
     inkscape:zoom="3.1861876"
     inkscape:cx="327.66182"
     inkscape:cy="64.543012"
     inkscape:document-units="mm"
     inkscape:current-layer="layer1"
     showgrid="false"
     showguides="false"
     inkscape:guide-bbox="true"
     inkscape:snap-global="true"
     fit-margin-top="0"
     fit-margin-left="0"
     fit-margin-right="0"
     fit-margin-bottom="0"
     inkscape:window-width="3840"
     inkscape:window-height="2085"
     inkscape:window-x="0"
     inkscape:window-y="38"
     inkscape:window-maximized="1"
     inkscape:snap-page="true">
    <sodipodi:guide
       position="4.8601078,-3.948956"
       orientation="1,0"
       id="guide90"
       inkscape:locked="false" />
    <sodipodi:guide
       position="53.146566,-5.744336"
       orientation="1,0"
       id="guide92"
       inkscape:locked="false" />
  </sodipodi:namedview>
  <metadata
     id="metadata5">
    <rdf:RDF>
      <cc:Work
         rdf:about="">
        <dc:format>image/svg+xml</dc:format>
        <dc:type
           rdf:resource="http://purl.org/dc/dcmitype/StillImage" />
        <dc:title></dc:title>
      </cc:Work>
    </rdf:RDF>
  </metadata>
  <g
     inkscape:label="Layer 1"
     inkscape:groupmode="layer"
     id="layer1"
     transform="translate(-21.314743,-7.6827445)">
    <rect
       style="color:#000000;overflow:visible;opacity:1;vector-effect:none;fill:#ffcc00;fill-opacity:1;stroke:none;stroke-width:0.26458332;stroke-linecap:butt;stroke-linejoin:miter;stroke-miterlimit:4;stroke-dasharray:none;stroke-dashoffset:0;stroke-opacity:1"
       id="rect88"
       width="60"
       height="60.000004"
       x="21.314743"
       y="7.6827445" />
    <g
       id="g145"
       transform="translate(0,1.1634291)">
      <g
         transform="matrix(0.95452525,0,0,0.95452525,3.0979128,1.6607068)"
         id="text12"
         style="font-style:normal;font-variant:normal;font-weight:normal;font-stretch:normal;font-size:10.84115505px;line-height:16.93930435px;font-family:Dyuthi;-inkscape-font-specification:Dyuthi;font-variant-ligatures:normal;font-variant-position:normal;font-variant-caps:normal;font-variant-numeric:normal;font-variant-alternates:normal;font-feature-settings:normal;text-indent:0;text-align:start;text-decoration:none;text-decoration-line:none;text-decoration-style:solid;text-decoration-color:#000000;letter-spacing:0px;word-spacing:0px;text-transform:none;writing-mode:lr-tb;direction:ltr;text-orientation:mixed;dominant-baseline:auto;baseline-shift:baseline;text-anchor:start;white-space:normal;shape-padding:0;opacity:1;vector-effect:none;fill:#000000;fill-opacity:1;stroke:none;stroke-width:0.27718839px;stroke-linecap:butt;stroke-linejoin:miter;stroke-miterlimit:4;stroke-dasharray:none;stroke-dashoffset:0;stroke-opacity:1"
         aria-label="NENGOBIO">
        <path
           inkscape:connector-curvature="0"
           id="path94"
           style="font-style:normal;font-variant:normal;font-weight:normal;font-stretch:normal;font-family:Dyuthi;-inkscape-font-specification:Dyuthi;stroke-width:0.27718839px"
           d="m 27.963489,59.430486 0.09528,3.657831 q 0.01059,0.301732 -0.222329,0.550528 -0.222328,0.232915 -0.550527,0.232915 h -0.02117 q -0.407602,0 -0.635224,-0.232915 -0.232916,-0.222329 -0.232916,-0.550528 v -5.092378 q 0,-0.317612 0.232916,-0.550528 0.211741,-0.222328 0.53994,-0.222328 h 0.465831 q 0.418189,0 0.635224,0.328199 l 2.784398,4.123662 -0.100577,-3.679005 q -0.01059,-0.312319 0.227622,-0.539941 0.232915,-0.232915 0.545234,-0.232915 h 0.02117 q 0.418189,0 0.645811,0.222328 0.222328,0.222329 0.222328,0.550528 v 4.637134 q 0,0.301732 -0.354666,0.86814 -0.301732,0.370547 -0.86814,0.370547 h -0.03176 q -0.677572,0 -1.042826,-0.598169 z" />
        <path
           inkscape:connector-curvature="0"
           id="path96"
           style="font-style:normal;font-variant:normal;font-weight:normal;font-stretch:normal;font-family:Dyuthi;-inkscape-font-specification:Dyuthi;stroke-width:0.27718839px"
           d="m 34.998594,62.680715 2.191523,-0.04235 q 0.232915,-0.0053 0.418189,0.164099 0.185273,0.169394 0.185273,0.43407 v 0.02117 q 0,0.248796 -0.174686,0.428776 -0.174687,0.174687 -0.428776,0.169393 h -2.837334 q -0.386428,0 -0.666985,-0.280557 -0.280557,-0.280557 -0.280557,-0.666985 v -4.785353 q 0,-0.381135 0.26997,-0.666986 0.26997,-0.280557 0.677572,-0.280557 h 2.694408 q 0.301732,0 0.471125,0.211741 0.259383,0.317612 0.111164,0.619344 -0.148219,0.301731 -0.206448,0.349373 -0.17998,0.142925 -0.386428,0.132338 l -2.03801,-0.09528 v 1.503363 l 1.921552,-0.04764 q 0.238209,-0.0053 0.41819,0.1641 0.17998,0.169393 0.17998,0.423482 v 0.02117 q 0,0.25409 -0.17998,0.428777 -0.179981,0.174686 -0.41819,0.169393 l -1.921552,-0.04764 z" />
        <path
           inkscape:connector-curvature="0"
           id="path98"
           style="font-style:normal;font-variant:normal;font-weight:normal;font-stretch:normal;font-family:Dyuthi;-inkscape-font-specification:Dyuthi;stroke-width:0.27718839px"
           d="m 40.138614,59.430486 0.09528,3.657831 q 0.01059,0.301732 -0.222329,0.550528 -0.222328,0.232915 -0.550527,0.232915 h -0.02117 q -0.407602,0 -0.635224,-0.232915 -0.232916,-0.222329 -0.232916,-0.550528 v -5.092378 q 0,-0.317612 0.232916,-0.550528 0.211741,-0.222328 0.53994,-0.222328 h 0.465831 q 0.418189,0 0.635224,0.328199 l 2.784398,4.123662 -0.100577,-3.679005 q -0.01059,-0.312319 0.227622,-0.539941 0.232915,-0.232915 0.545234,-0.232915 h 0.02117 q 0.418189,0 0.645811,0.222328 0.222328,0.222329 0.222328,0.550528 v 4.637134 q 0,0.301732 -0.354666,0.86814 -0.301732,0.370547 -0.86814,0.370547 h -0.03176 q -0.677572,0 -1.042826,-0.598169 z" />
        <path
           inkscape:connector-curvature="0"
           id="path100"
           style="font-style:normal;font-variant:normal;font-weight:normal;font-stretch:normal;font-family:Dyuthi;-inkscape-font-specification:Dyuthi;stroke-width:0.27718839px"
           d="m 49.518755,60.076297 q 0,0 1.482189,0 0.269971,-0.01059 0.460538,0.185274 0.190567,0.190567 0.185273,0.460537 v 1.985075 q -0.01059,0.365254 -0.243502,0.656398 -0.232916,0.280557 -0.502886,0.333493 -0.26997,0.05293 -0.698746,0.121751 -0.428776,0.07411 -0.952836,0.07411 -1.76804,0 -2.720876,-0.915781 -0.958129,-0.915781 -0.968716,-2.376796 0.01059,-1.630408 1.101054,-2.56207 1.090468,-0.926368 2.752638,-0.926368 0.386427,0 1.545711,0.09528 0.232916,0.02117 0.370547,0.211742 0.248796,0.386428 0.0847,0.852258 l -0.01059,0.01059 q -0.190567,0.471124 -0.645811,0.434069 L 49.280546,58.56764 q -1.196338,-0.116457 -1.672756,0.397015 -0.688159,0.725214 -0.587582,1.741573 0.0794,0.852258 0.735801,1.43984 0.661691,0.587583 1.582766,0.587583 h 0.264677 q 0.17998,0 0.344079,-0.1641 0.1641,-0.164099 0.1641,-0.338786 v -0.772856 q 0,-0.174686 -0.116458,-0.26997 -0.137632,-0.153512 -0.254089,-0.09528 l -0.307025,0.153513 q -0.365254,0.174686 -0.481712,-0.26997 v -0.01059 q -0.116458,-0.386428 0.09528,-0.656398 0.169393,-0.232916 0.471124,-0.232916 z" />
        <path
           inkscape:connector-curvature="0"
           id="path102"
           style="font-style:normal;font-variant:normal;font-weight:normal;font-stretch:normal;font-family:Dyuthi;-inkscape-font-specification:Dyuthi;stroke-width:0.27718839px"
           d="m 54.589959,62.474267 q 0.50818,0.635224 1.175165,0.635224 0.666985,0 1.201632,-0.624636 0.534646,-0.624637 0.534646,-2.345035 0,-0.873433 -0.534646,-1.49807 -0.534647,-0.624637 -1.201632,-0.624637 -0.666985,0 -1.169871,0.62993 -0.508179,0.629931 -0.508179,1.492777 -0.0053,1.699224 0.502885,2.334447 z m 1.429254,-5.325293 q 1.344558,0.169393 2.239165,1.064 0.894607,0.894607 0.894607,2.334448 0,1.43984 -0.846966,2.350328 -0.841671,0.905194 -2.286806,0.989891 -0.100577,0.0053 -0.132338,0.01588 -0.03176,0.01059 -0.04764,0.0053 h -0.08999 q -0.02117,0 -0.04764,0 -0.03176,0.0053 -0.132338,-0.02117 -1.487483,-0.142926 -2.30798,-1.011065 -0.820498,-0.868139 -0.820498,-2.329154 0,-1.455722 0.921075,-2.36621 0.921075,-0.910487 2.207403,-1.032238 0.153512,-0.01588 0.227622,-0.02117 0.0794,0.0053 0.222328,0.02117 z" />
        <path
           inkscape:connector-curvature="0"
           id="path104"
           style="font-style:normal;font-variant:normal;font-weight:normal;font-stretch:normal;font-family:Dyuthi;-inkscape-font-specification:Dyuthi;stroke-width:0.27718839px"
           d="m 61.81034,60.822685 h -0.333493 q -0.0847,0 -0.153512,0.05823 -0.06882,0.05823 -0.06882,0.148219 v 1.651582 q 0,0.0794 0.06352,0.132339 0.06352,0.05823 0.1641,0.05823 0.100577,0 0.53994,0.0053 0.43407,0.0053 0.825791,-0.201154 0.391721,-0.206448 0.391721,-0.825791 0,-0.619344 -0.397015,-0.820498 -0.397015,-0.206448 -1.032238,-0.206448 z m -0.555821,-2.371502 v 1.381612 q 0,0.0794 0.05823,0.132338 0.05823,0.05293 0.158806,0.05823 h 0.280558 q 0.587582,0 0.894607,-0.190567 0.307025,-0.195861 0.301731,-0.677573 -0.01588,-0.905194 -1.053413,-0.910487 -0.254089,0 -0.444657,0.01059 -0.19586,0.01059 -0.19586,0.195861 z m 2.456199,1.831562 q 0,0.132338 0.06882,0.153512 1.132816,0.34408 1.127522,1.503364 0,0.820497 -0.725214,1.355144 -0.725214,0.534647 -2.768517,0.53994 -0.05294,0 -1.005772,0.03706 -0.280557,0.01059 -0.502885,-0.17998 -0.222329,-0.195861 -0.222329,-0.497592 v -5.288239 q 0,-0.285851 0.206448,-0.476418 0.206448,-0.190567 0.481712,-0.190567 0.561114,0.01588 1.371025,0.02647 1.445134,0.01588 2.096239,0.35996 0.841671,0.407602 0.841671,1.275742 0,0.868139 -0.910487,1.281035 -0.05823,0.03176 -0.05823,0.100577 z" />
        <path
           inkscape:connector-curvature="0"
           id="path106"
           style="font-style:normal;font-variant:normal;font-weight:normal;font-stretch:normal;font-family:Dyuthi;-inkscape-font-specification:Dyuthi;stroke-width:0.27718839px"
           d="m 67.119752,63.093611 q 0,0.322905 -0.227622,0.555821 -0.227622,0.232915 -0.555821,0.232915 h -0.01588 q -0.328199,0 -0.561114,-0.227622 -0.232916,-0.232915 -0.232916,-0.561114 v -5.182369 q 0,-0.328199 0.232916,-0.561114 0.232915,-0.232916 0.561114,-0.232916 h 0.01588 q 0.317612,0 0.550527,0.227622 0.232916,0.227622 0.232916,0.566408 z" />
        <path
           inkscape:connector-curvature="0"
           id="path108"
           style="font-style:normal;font-variant:normal;font-weight:normal;font-stretch:normal;font-family:Dyuthi;-inkscape-font-specification:Dyuthi;stroke-width:0.27718839px"
           d="m 70.06825,62.474267 q 0.508179,0.635224 1.175164,0.635224 0.666985,0 1.201632,-0.624636 0.534647,-0.624637 0.534647,-2.345035 0,-0.873433 -0.534647,-1.49807 -0.534647,-0.624637 -1.201632,-0.624637 -0.666985,0 -1.16987,0.62993 -0.50818,0.629931 -0.50818,1.492777 -0.0053,1.699224 0.502886,2.334447 z m 1.429254,-5.325293 q 1.344557,0.169393 2.239164,1.064 0.894607,0.894607 0.894607,2.334448 0,1.43984 -0.846965,2.350328 -0.841672,0.905194 -2.286806,0.989891 -0.100577,0.0053 -0.132338,0.01588 -0.03176,0.01059 -0.04764,0.0053 h -0.08999 q -0.02117,0 -0.04764,0 -0.03176,0.0053 -0.132338,-0.02117 -1.487483,-0.142926 -2.307981,-1.011065 -0.820497,-0.868139 -0.820497,-2.329154 0,-1.455722 0.921074,-2.36621 0.921075,-0.910487 2.207404,-1.032238 0.153512,-0.01588 0.227621,-0.02117 0.0794,0.0053 0.222329,0.02117 z" />
      </g>
      <g
         style="stroke-width:2.80931258"
         transform="matrix(0.09418081,0,0,0.09418081,26.82774,10.247555)"
         id="g86">
        <use
           style="stroke-width:2.80931258"
           height="100%"
           width="100%"
           y="0"
           x="0"
           xlink:href="#p"
           id="use70" />
        <use
           style="stroke-width:2.80931258"
           height="100%"
           width="100%"
           y="0"
           x="0"
           xlink:href="#p"
           transform="rotate(120,260,260)"
           id="use72" />
        <use
           style="stroke-width:2.80931258"
           height="100%"
           width="100%"
           y="0"
           x="0"
           xlink:href="#p"
           transform="rotate(-120,260,260)"
           id="use74" />
      </g>
    </g>
    <rect
       style="color:#000000;overflow:visible;opacity:1;vector-effect:none;fill:#ffcc00;fill-opacity:1;stroke:none;stroke-width:0.26458332;stroke-linecap:butt;stroke-linejoin:miter;stroke-miterlimit:4;stroke-dasharray:none;stroke-dashoffset:0;stroke-opacity:1"
       id="rect130"
       width="0"
       height="1.4210855e-14"
       x="81.314743"
       y="67.682747" />
  </g>
</svg>
